<svg width="49.321" height="73.735" viewBox="0 0 49.321 73.735" xmlns="http://www.w3.org/2000/svg">
  <path
    d="M 32.228 73.733 L 17.092 73.733 A 24.602 24.602 0 0 1 10.329 72.885 Q 2.745 70.713 0.731 62.972 A 25.178 25.178 0 0 1 0.002 56.643 L 0.002 51.272 L 9.279 46.877 L 9.768 46.877 L 9.768 56.643 A 13.694 13.694 0 0 0 10.093 59.775 Q 11.096 64.027 15.186 64.781 A 10.521 10.521 0 0 0 17.092 64.944 L 32.228 64.944 A 9.234 9.234 0 0 0 35.259 64.488 Q 39.553 62.998 39.553 56.643 L 39.553 46.389 A 13.694 13.694 0 0 0 39.227 43.256 Q 38.224 39.004 34.134 38.251 A 10.521 10.521 0 0 0 32.228 38.088 L 19.045 38.088 Q 4.396 38.088 4.396 23.44 L 4.396 14.651 Q 4.396 0.002 19.045 0.002 L 30.275 0.002 Q 44.924 0.002 44.924 14.651 L 44.924 17.238 L 35.646 21.633 L 35.158 21.633 L 35.158 14.651 A 10.274 10.274 0 0 0 34.949 12.476 Q 34.266 9.336 31.353 8.872 A 6.851 6.851 0 0 0 30.275 8.791 L 19.045 8.791 A 5.757 5.757 0 0 0 16.937 9.146 Q 14.428 10.129 14.187 13.836 A 12.612 12.612 0 0 0 14.162 14.651 L 14.162 23.44 A 10.274 10.274 0 0 0 14.371 25.615 Q 15.054 28.754 17.967 29.219 A 6.851 6.851 0 0 0 19.045 29.299 L 32.228 29.299 A 24.602 24.602 0 0 1 38.992 30.146 Q 46.575 32.319 48.59 40.06 A 25.178 25.178 0 0 1 49.318 46.389 L 49.318 56.643 A 24.602 24.602 0 0 1 48.471 63.406 Q 46.299 70.99 38.557 73.004 A 25.178 25.178 0 0 1 32.228 73.733 Z" />
</svg>