<svg width="49.321" height="75.686" viewBox="0 0 49.321 75.686" xmlns="http://www.w3.org/2000/svg">
  <path
    d="M 0.491 75.686 L 0.003 75.686 L 0.003 17.092 A 24.602 24.602 0 0 1 0.85 10.329 Q 3.022 2.746 10.764 0.731 A 25.178 25.178 0 0 1 17.092 0.003 L 32.229 0.003 A 24.602 24.602 0 0 1 38.992 0.85 Q 46.576 3.022 48.59 10.764 A 25.178 25.178 0 0 1 49.319 17.092 L 49.319 71.292 L 40.042 75.686 L 39.553 75.686 L 39.553 41.311 L 9.768 41.311 L 9.768 71.292 L 0.491 75.686 Z M 9.768 17.092 L 9.768 32.424 L 39.553 32.424 L 39.553 17.092 A 13.694 13.694 0 0 0 39.227 13.96 Q 38.225 9.708 34.135 8.954 A 10.521 10.521 0 0 0 32.229 8.792 L 17.092 8.792 A 9.234 9.234 0 0 0 14.061 9.248 Q 9.768 10.737 9.768 17.092 Z" />
</svg>