<svg width="49.321" height="73.736" viewBox="0 0 49.321 73.736" xmlns="http://www.w3.org/2000/svg">
  <path
    d="M 32.229 73.733 L 17.092 73.733 A 24.602 24.602 0 0 1 10.329 72.886 Q 2.746 70.714 0.731 62.972 A 25.178 25.178 0 0 1 0.003 56.643 L 0.003 17.092 A 24.602 24.602 0 0 1 0.85 10.329 Q 3.022 2.746 10.764 0.731 A 25.178 25.178 0 0 1 17.092 0.003 L 32.229 0.003 A 24.602 24.602 0 0 1 38.992 0.85 Q 46.576 3.022 48.59 10.764 A 25.178 25.178 0 0 1 49.319 17.092 L 49.319 22.463 L 40.042 26.858 L 39.553 26.858 L 39.553 17.092 A 13.694 13.694 0 0 0 39.227 13.96 Q 38.225 9.708 34.135 8.954 A 10.521 10.521 0 0 0 32.229 8.792 L 17.092 8.792 A 9.234 9.234 0 0 0 14.061 9.248 Q 9.768 10.737 9.768 17.092 L 9.768 56.643 A 13.694 13.694 0 0 0 10.094 59.776 Q 11.097 64.028 15.186 64.781 A 10.521 10.521 0 0 0 17.092 64.944 L 32.229 64.944 A 9.234 9.234 0 0 0 35.26 64.488 Q 39.553 62.998 39.553 56.643 L 39.553 51.272 L 48.831 46.878 L 49.319 46.878 L 49.319 56.643 A 24.602 24.602 0 0 1 48.472 63.406 Q 46.299 70.99 38.558 73.004 A 25.178 25.178 0 0 1 32.229 73.733 Z" />
</svg>